# xmcd
#
# Track frame offsets:
#	150
#	22074
#	55329
#	72978
#	89427
#
# Disc length: 1544 seconds
#
# Revision: 0
# Processed by: cddbd v1.5.2PL0 Copyright (c) Steve Scherf et al.
# Submitted via: audiograbber 1.83.01
#
DISCID=42060605
DTITLE=Bill Price - Digging Deeper And Sky
DYEAR=1900
DGENRE=
TTITLE0=Ordinary Time
TTITLE1=Ass Theey Come
TTITLE2=Don´t Put The Child Away To Longe
TTITLE3=Saint Ampersand
TTITLE4=The Last Refugee
EXTD=
EXTT0=
EXTT1=
EXTT2=
EXTT3=
EXTT4=
PLAYORDER=
